# xmcd
# 
# Track frame offsets:
#     150
#     7753
#     103091
#     163150
# 
# Disc length: 2702
# 
# Revision: 2
# Processed by: cddbd v1.5.2PL0 Copyright (c) Steve Scherf et al.
# Submitted via: BonkEnc v1.0.8
# 
DISCID=240a8c04
DTITLE=Elvin Jones - Live At The Lighthouse
DYEAR=1972
DGENRE=Jazz
TTITLE0=Introduction
TTITLE1=Fancy Free
TTITLE2=Sambra
TTITLE3=The Children, Save The Children
EXTD=YEAR: 1972
EXTT0=
EXTT1=
EXTT2=
EXTT3=
PLAYORDER=
